<?xml version="1.0" encoding="UTF-8"?>
<svg version="1.1" xmlns="http://www.w3.org/2000/svg" width="829" height="189" viewBox="187 337 829 189">
<path d="M0,0 L58,0 L58,1 L65,1 L65,2 L68,2 L68,3 L71,3 L71,4 L73,4 L73,5 L76,5 L76,6 L77,6 L77,7 L78,7 L78,8 L80,8 L80,9 L81,9 L81,10 L82,10 L82,11 L83,11 L83,13 L84,13 L84,14 L85,14 L85,16 L86,16 L86,17 L87,17 L87,20 L88,20 L88,35 L87,35 L87,38 L86,38 L86,41 L85,41 L85,42 L84,42 L84,44 L83,44 L83,45 L82,45 L82,46 L81,46 L81,47 L80,47 L80,48 L79,48 L79,49 L77,49 L77,50 L76,50 L76,51 L78,51 L78,52 L80,52 L80,53 L82,53 L82,54 L83,54 L83,55 L84,55 L84,56 L85,56 L85,57 L86,57 L86,58 L87,58 L87,59 L88,59 L88,61 L89,61 L89,62 L90,62 L90,64 L91,64 L91,66 L92,66 L92,71 L93,71 L93,82 L92,82 L92,85 L91,85 L91,87 L90,87 L90,89 L89,89 L89,91 L88,91 L88,93 L87,93 L87,94 L86,94 L86,95 L85,95 L85,96 L84,96 L84,97 L82,97 L82,98 L81,98 L81,99 L79,99 L79,100 L77,100 L77,101 L75,101 L75,102 L71,102 L71,103 L68,103 L68,104 L61,104 L61,105 L0,105 Z " fill="#132B43" transform="translate(438,386)"/>
<path d="M0,0 L24,0 L24,36 L25,36 L25,35 L26,35 L26,34 L27,34 L27,33 L29,33 L29,32 L31,32 L31,31 L33,31 L33,30 L35,30 L35,29 L39,29 L39,28 L51,28 L51,29 L55,29 L55,30 L59,30 L59,31 L61,31 L61,32 L63,32 L63,33 L65,33 L65,34 L67,34 L67,35 L68,35 L68,36 L69,36 L69,37 L71,37 L71,38 L72,38 L72,39 L73,39 L73,40 L74,40 L74,41 L75,41 L75,43 L76,43 L76,44 L77,44 L77,46 L78,46 L78,47 L79,47 L79,49 L80,49 L80,52 L81,52 L81,54 L82,54 L82,58 L83,58 L83,77 L82,77 L82,82 L81,82 L81,84 L80,84 L80,87 L79,87 L79,89 L78,89 L78,91 L77,91 L77,92 L76,92 L76,94 L75,94 L75,95 L74,95 L74,96 L73,96 L73,97 L72,97 L72,98 L71,98 L71,99 L70,99 L70,100 L69,100 L69,101 L67,101 L67,102 L66,102 L66,103 L64,103 L64,104 L62,104 L62,105 L59,105 L59,106 L56,106 L56,107 L51,107 L51,108 L39,108 L39,107 L34,107 L34,106 L32,106 L32,105 L30,105 L30,104 L28,104 L28,103 L27,103 L27,102 L26,102 L26,101 L24,101 L24,100 L23,100 L23,99 L22,99 L22,107 L0,107 Z " fill="#132A42" transform="translate(833,384)"/>
<path d="M0,0 L24,0 L24,107 L2,107 L2,99 L1,99 L1,100 L0,100 L0,101 L-1,101 L-1,102 L-2,102 L-2,103 L-4,103 L-4,104 L-6,104 L-6,105 L-8,105 L-8,106 L-11,106 L-11,107 L-15,107 L-15,108 L-30,108 L-30,107 L-33,107 L-33,106 L-36,106 L-36,105 L-38,105 L-38,104 L-40,104 L-40,103 L-41,103 L-41,102 L-43,102 L-43,101 L-44,101 L-44,100 L-46,100 L-46,99 L-47,99 L-47,98 L-48,98 L-48,97 L-49,97 L-49,96 L-50,96 L-50,94 L-51,94 L-51,93 L-52,93 L-52,92 L-53,92 L-53,90 L-54,90 L-54,88 L-55,88 L-55,86 L-56,86 L-56,83 L-57,83 L-57,79 L-58,79 L-58,77 L-59,77 L-59,60 L-58,60 L-58,56 L-57,56 L-57,53 L-56,53 L-56,51 L-55,51 L-55,49 L-54,49 L-54,47 L-53,47 L-53,45 L-52,45 L-52,44 L-51,44 L-51,42 L-50,42 L-50,41 L-49,41 L-49,40 L-48,40 L-48,39 L-47,39 L-47,38 L-46,38 L-46,37 L-45,37 L-45,36 L-44,36 L-44,35 L-42,35 L-42,34 L-41,34 L-41,33 L-39,33 L-39,32 L-37,32 L-37,31 L-35,31 L-35,30 L-32,30 L-32,29 L-28,29 L-28,28 L-16,28 L-16,29 L-12,29 L-12,30 L-9,30 L-9,31 L-6,31 L-6,32 L-4,32 L-4,33 L-3,33 L-3,34 L-2,34 L-2,35 L0,35 Z " fill="#132B43" transform="translate(639,384)"/>
<path d="M0,0 L12,0 L12,1 L15,1 L15,2 L17,2 L17,3 L18,3 L18,4 L20,4 L20,5 L21,5 L21,7 L22,7 L22,8 L23,8 L23,10 L24,10 L24,12 L25,12 L25,156 L24,156 L24,159 L23,159 L23,161 L22,161 L22,162 L21,162 L21,163 L20,163 L20,164 L19,164 L19,165 L18,165 L18,166 L17,166 L17,167 L15,167 L15,168 L13,168 L13,169 L1,169 L1,168 L-1,168 L-1,167 L-3,167 L-3,166 L-4,166 L-4,165 L-6,165 L-6,164 L-7,164 L-7,162 L-8,162 L-8,161 L-9,161 L-9,159 L-10,159 L-10,156 L-11,156 L-11,153 L-12,153 L-12,14 L-11,14 L-11,11 L-10,11 L-10,9 L-9,9 L-9,7 L-8,7 L-8,6 L-7,6 L-7,5 L-6,5 L-6,4 L-5,4 L-5,3 L-4,3 L-4,2 L-2,2 L-2,1 L0,1 Z " fill="#49BCE2" transform="translate(265,347)"/>
<path d="M0,0 L27,0 L27,1 L28,1 L28,3 L29,3 L29,6 L30,6 L30,8 L31,8 L31,11 L32,11 L32,13 L33,13 L33,16 L34,16 L34,18 L35,18 L35,21 L36,21 L36,23 L37,23 L37,26 L38,26 L38,29 L39,29 L39,31 L40,31 L40,34 L41,34 L41,37 L42,37 L42,39 L43,39 L43,42 L44,42 L44,44 L45,44 L45,47 L46,47 L46,49 L47,49 L47,52 L48,52 L48,54 L49,54 L49,57 L50,57 L50,60 L51,60 L51,62 L52,62 L52,65 L53,65 L53,68 L54,68 L54,70 L55,70 L55,74 L57,74 L57,71 L58,71 L58,69 L59,69 L59,66 L60,66 L60,63 L61,63 L61,61 L62,61 L62,58 L63,58 L63,55 L64,55 L64,53 L65,53 L65,50 L66,50 L66,48 L67,48 L67,45 L68,45 L68,43 L69,43 L69,40 L70,40 L70,37 L71,37 L71,35 L72,35 L72,33 L73,33 L73,30 L74,30 L74,27 L75,27 L75,25 L76,25 L76,22 L77,22 L77,20 L78,20 L78,17 L79,17 L79,15 L80,15 L80,12 L81,12 L81,10 L82,10 L82,7 L83,7 L83,5 L84,5 L84,2 L85,2 L85,0 L111,0 L111,3 L110,3 L110,6 L109,6 L109,8 L108,8 L108,11 L107,11 L107,13 L106,13 L106,16 L105,16 L105,18 L104,18 L104,21 L103,21 L103,23 L102,23 L102,26 L101,26 L101,28 L100,28 L100,31 L99,31 L99,34 L98,34 L98,36 L97,36 L97,39 L96,39 L96,41 L95,41 L95,43 L94,43 L94,46 L93,46 L93,48 L92,48 L92,51 L91,51 L91,53 L90,53 L90,56 L89,56 L89,58 L88,58 L88,61 L87,61 L87,63 L86,63 L86,66 L85,66 L85,68 L84,68 L84,71 L83,71 L83,73 L82,73 L82,76 L81,76 L81,78 L80,78 L80,81 L79,81 L79,83 L78,83 L78,85 L77,85 L77,88 L76,88 L76,90 L75,90 L75,93 L74,93 L74,95 L73,95 L73,98 L72,98 L72,100 L71,100 L71,103 L70,103 L70,105 L42,105 L42,104 L41,104 L41,101 L40,101 L40,99 L39,99 L39,96 L38,96 L38,94 L37,94 L37,91 L36,91 L36,89 L35,89 L35,86 L34,86 L34,84 L33,84 L33,82 L32,82 L32,79 L31,79 L31,77 L30,77 L30,74 L29,74 L29,72 L28,72 L28,69 L27,69 L27,67 L26,67 L26,64 L25,64 L25,62 L24,62 L24,59 L23,59 L23,57 L22,57 L22,54 L21,54 L21,52 L20,52 L20,49 L19,49 L19,47 L18,47 L18,44 L17,44 L17,42 L16,42 L16,39 L15,39 L15,37 L14,37 L14,34 L13,34 L13,32 L12,32 L12,29 L11,29 L11,27 L10,27 L10,24 L9,24 L9,22 L8,22 L8,19 L7,19 L7,17 L6,17 L6,14 L5,14 L5,12 L4,12 L4,9 L3,9 L3,7 L2,7 L2,4 L1,4 L1,2 L0,2 Z " fill="#132A42" transform="translate(671,386)"/>
<path d="M0,0 L8,0 L8,1 L12,1 L12,2 L14,2 L14,3 L15,3 L15,4 L17,4 L17,5 L18,5 L18,7 L19,7 L19,8 L20,8 L20,10 L21,10 L21,12 L22,12 L22,14 L23,14 L23,121 L22,121 L22,124 L21,124 L21,127 L20,127 L20,129 L19,129 L19,130 L18,130 L18,131 L17,131 L17,132 L16,132 L16,133 L14,133 L14,134 L12,134 L12,135 L9,135 L9,136 L-1,136 L-1,135 L-3,135 L-3,134 L-5,134 L-5,133 L-7,133 L-7,132 L-8,132 L-8,131 L-9,131 L-9,130 L-10,130 L-10,128 L-11,128 L-11,126 L-12,126 L-12,124 L-13,124 L-13,121 L-14,121 L-14,14 L-13,14 L-13,12 L-12,12 L-12,10 L-11,10 L-11,8 L-10,8 L-10,7 L-9,7 L-9,6 L-8,6 L-8,5 L-7,5 L-7,4 L-6,4 L-6,3 L-4,3 L-4,2 L-2,2 L-2,1 L0,1 Z " fill="#35B5DF" transform="translate(321,380)"/>
<path d="M0,0 L17,0 L17,1 L20,1 L20,2 L23,2 L23,3 L25,3 L25,4 L28,4 L28,5 L30,5 L30,6 L31,6 L31,7 L33,7 L33,8 L34,8 L34,9 L35,9 L35,10 L36,10 L36,11 L37,11 L37,12 L38,12 L38,13 L39,13 L39,14 L40,14 L40,15 L41,15 L41,17 L42,17 L42,18 L43,18 L43,20 L44,20 L44,22 L45,22 L45,24 L46,24 L46,27 L47,27 L47,31 L48,31 L48,47 L-9,47 L-9,50 L-8,50 L-8,52 L-7,52 L-7,53 L-6,53 L-6,55 L-5,55 L-5,56 L-4,56 L-4,57 L-2,57 L-2,58 L0,58 L0,59 L2,59 L2,60 L4,60 L4,61 L18,61 L18,60 L20,60 L20,59 L23,59 L23,58 L25,58 L25,57 L26,57 L26,56 L27,56 L27,55 L29,55 L29,54 L31,54 L31,55 L32,55 L32,56 L33,56 L33,57 L34,57 L34,58 L35,58 L35,59 L36,59 L36,60 L37,60 L37,61 L38,61 L38,62 L39,62 L39,63 L40,63 L40,64 L41,64 L41,65 L42,65 L42,66 L43,66 L43,68 L42,68 L42,69 L41,69 L41,70 L40,70 L40,71 L39,71 L39,72 L37,72 L37,73 L36,73 L36,74 L34,74 L34,75 L32,75 L32,76 L30,76 L30,77 L27,77 L27,78 L23,78 L23,79 L19,79 L19,80 L1,80 L1,79 L-3,79 L-3,78 L-7,78 L-7,77 L-10,77 L-10,76 L-12,76 L-12,75 L-14,75 L-14,74 L-16,74 L-16,73 L-17,73 L-17,72 L-19,72 L-19,71 L-20,71 L-20,70 L-21,70 L-21,69 L-22,69 L-22,68 L-23,68 L-23,67 L-24,67 L-24,66 L-25,66 L-25,65 L-26,65 L-26,63 L-27,63 L-27,62 L-28,62 L-28,60 L-29,60 L-29,58 L-30,58 L-30,56 L-31,56 L-31,53 L-32,53 L-32,51 L-33,51 L-33,45 L-34,45 L-34,35 L-33,35 L-33,29 L-32,29 L-32,26 L-31,26 L-31,24 L-30,24 L-30,22 L-29,22 L-29,20 L-28,20 L-28,18 L-27,18 L-27,17 L-26,17 L-26,15 L-25,15 L-25,14 L-24,14 L-24,13 L-23,13 L-23,12 L-22,12 L-22,11 L-21,11 L-21,10 L-20,10 L-20,9 L-18,9 L-18,8 L-17,8 L-17,7 L-15,7 L-15,6 L-14,6 L-14,5 L-12,5 L-12,4 L-10,4 L-10,3 L-7,3 L-7,2 L-4,2 L-4,1 L0,1 Z " fill="#152C44" transform="translate(958,412)"/>
<path d="M0,0 L10,0 L10,1 L12,1 L12,2 L14,2 L14,3 L16,3 L16,4 L17,4 L17,5 L18,5 L18,6 L19,6 L19,7 L20,7 L20,9 L21,9 L21,10 L22,10 L22,12 L23,12 L23,14 L24,14 L24,96 L23,96 L23,99 L22,99 L22,101 L21,101 L21,103 L20,103 L20,105 L19,105 L19,106 L18,106 L18,107 L17,107 L17,108 L15,108 L15,109 L13,109 L13,110 L11,110 L11,111 L-1,111 L-1,110 L-3,110 L-3,109 L-5,109 L-5,108 L-6,108 L-6,107 L-8,107 L-8,106 L-9,106 L-9,104 L-10,104 L-10,103 L-11,103 L-11,101 L-12,101 L-12,98 L-13,98 L-13,12 L-12,12 L-12,10 L-11,10 L-11,8 L-10,8 L-10,7 L-9,7 L-9,6 L-8,6 L-8,5 L-7,5 L-7,4 L-6,4 L-6,3 L-5,3 L-5,2 L-3,2 L-3,1 L0,1 Z " fill="#68C8E9" transform="translate(213,405)"/>
<path d="M0,0 L10,0 L10,1 L13,1 L13,2 L15,2 L15,3 L16,3 L16,4 L17,4 L17,5 L18,5 L18,6 L19,6 L19,7 L20,7 L20,8 L21,8 L21,10 L22,10 L22,12 L23,12 L23,80 L22,80 L22,83 L21,83 L21,85 L20,85 L20,86 L19,86 L19,88 L18,88 L18,89 L16,89 L16,90 L15,90 L15,91 L13,91 L13,92 L10,92 L10,93 L-1,93 L-1,92 L-3,92 L-3,91 L-5,91 L-5,90 L-6,90 L-6,89 L-7,89 L-7,88 L-8,88 L-8,87 L-9,87 L-9,86 L-10,86 L-10,84 L-11,84 L-11,83 L-12,83 L-12,80 L-13,80 L-13,12 L-12,12 L-12,10 L-11,10 L-11,8 L-10,8 L-10,7 L-9,7 L-9,6 L-8,6 L-8,5 L-7,5 L-7,4 L-6,4 L-6,3 L-5,3 L-5,2 L-3,2 L-3,1 L0,1 Z " fill="#1AACDA" transform="translate(374,423)"/>
<path d="M0,0 L24,0 L24,77 L0,77 Z " fill="#0F2941" transform="translate(791,414)"/>
<path d="M0,0 L24,0 L24,77 L0,77 Z " fill="#142C44" transform="translate(543,414)"/>
<path d="M0,0 L12,0 L12,1 L14,1 L14,2 L16,2 L16,3 L17,3 L17,4 L18,4 L18,5 L19,5 L19,6 L20,6 L20,8 L21,8 L21,9 L22,9 L22,11 L23,11 L23,14 L24,14 L24,26 L23,26 L23,28 L22,28 L22,31 L21,31 L21,32 L20,32 L20,34 L19,34 L19,35 L18,35 L18,36 L17,36 L17,37 L15,37 L15,38 L13,38 L13,39 L10,39 L10,40 L2,40 L2,39 L-1,39 L-1,38 L-3,38 L-3,37 L-4,37 L-4,36 L-5,36 L-5,35 L-6,35 L-6,34 L-7,34 L-7,33 L-8,33 L-8,32 L-9,32 L-9,30 L-10,30 L-10,28 L-11,28 L-11,11 L-10,11 L-10,9 L-9,9 L-9,7 L-8,7 L-8,6 L-7,6 L-7,5 L-6,5 L-6,4 L-5,4 L-5,3 L-4,3 L-4,2 L-2,2 L-2,1 L0,1 Z " fill="#F9FAFA" transform="translate(868,432)"/>
<path d="M0,0 L11,0 L11,1 L14,1 L14,2 L15,2 L15,3 L17,3 L17,4 L18,4 L18,5 L19,5 L19,6 L20,6 L20,8 L21,8 L21,9 L22,9 L22,12 L23,12 L23,27 L22,27 L22,30 L21,30 L21,32 L20,32 L20,33 L19,33 L19,34 L18,34 L18,35 L17,35 L17,36 L16,36 L16,37 L15,37 L15,38 L12,38 L12,39 L9,39 L9,40 L1,40 L1,39 L-1,39 L-1,38 L-3,38 L-3,37 L-4,37 L-4,36 L-5,36 L-5,35 L-6,35 L-6,34 L-7,34 L-7,33 L-8,33 L-8,32 L-9,32 L-9,30 L-10,30 L-10,28 L-11,28 L-11,12 L-10,12 L-10,10 L-9,10 L-9,8 L-8,8 L-8,6 L-7,6 L-7,5 L-6,5 L-6,4 L-5,4 L-5,3 L-3,3 L-3,2 L-2,2 L-2,1 L0,1 Z " fill="#FAFBFC" transform="translate(616,432)"/>
<path d="M0,0 L31,0 L31,1 L34,1 L34,2 L37,2 L37,3 L38,3 L38,4 L39,4 L39,5 L40,5 L40,6 L41,6 L41,8 L42,8 L42,16 L41,16 L41,18 L40,18 L40,19 L39,19 L39,20 L38,20 L38,21 L36,21 L36,22 L33,22 L33,23 L0,23 Z " fill="#F9FBFB" transform="translate(463,447)"/>
<path d="M0,0 L30,0 L30,1 L33,1 L33,2 L35,2 L35,3 L36,3 L36,4 L37,4 L37,6 L38,6 L38,14 L37,14 L37,16 L36,16 L36,17 L35,17 L35,18 L34,18 L34,19 L32,19 L32,20 L29,20 L29,21 L0,21 Z " fill="#FCFDFD" transform="translate(463,407)"/>
<path d="M0,0 L11,0 L11,1 L13,1 L13,2 L14,2 L14,3 L16,3 L16,4 L17,4 L17,6 L18,6 L18,7 L19,7 L19,10 L20,10 L20,16 L19,16 L19,19 L18,19 L18,20 L17,20 L17,22 L16,22 L16,23 L14,23 L14,24 L12,24 L12,25 L9,25 L9,26 L1,26 L1,25 L-1,25 L-1,24 L-3,24 L-3,23 L-4,23 L-4,22 L-6,22 L-6,20 L-7,20 L-7,19 L-8,19 L-8,16 L-9,16 L-9,9 L-8,9 L-8,7 L-7,7 L-7,6 L-6,6 L-6,4 L-5,4 L-5,3 L-3,3 L-3,2 L-2,2 L-2,1 L0,1 Z " fill="#172D44" transform="translate(550,380)"/>
<path d="M0,0 L10,0 L10,1 L12,1 L12,2 L14,2 L14,3 L15,3 L15,4 L16,4 L16,5 L17,5 L17,7 L18,7 L18,9 L19,9 L19,16 L18,16 L18,19 L17,19 L17,21 L16,21 L16,22 L15,22 L15,23 L13,23 L13,24 L11,24 L11,25 L8,25 L8,26 L0,26 L0,25 L-2,25 L-2,24 L-4,24 L-4,23 L-5,23 L-5,22 L-7,22 L-7,20 L-8,20 L-8,19 L-9,19 L-9,16 L-10,16 L-10,10 L-9,10 L-9,8 L-8,8 L-8,6 L-7,6 L-7,5 L-6,5 L-6,4 L-5,4 L-5,3 L-4,3 L-4,2 L-3,2 L-3,1 L0,1 Z " fill="#162C43" transform="translate(798,380)"/>
<path d="M0,0 L12,0 L12,1 L15,1 L15,2 L17,2 L17,3 L18,3 L18,4 L19,4 L19,5 L20,5 L20,6 L21,6 L21,7 L22,7 L22,9 L23,9 L23,11 L24,11 L24,15 L-11,15 L-11,12 L-10,12 L-10,10 L-9,10 L-9,8 L-8,8 L-8,6 L-7,6 L-7,5 L-6,5 L-6,4 L-5,4 L-5,3 L-3,3 L-3,2 L-2,2 L-2,1 L0,1 Z " fill="#F3F5F7" transform="translate(959,430)"/>
<path d="M0,0 L24,0 L24,77 L0,77 Z M1,2 L1,75 L22,75 L22,2 Z " fill="#233445" transform="translate(791,414)"/>
<path d="M0,0 L8,0 L8,1 L12,1 L12,2 L14,2 L14,3 L15,3 L15,4 L17,4 L17,5 L18,5 L18,7 L19,7 L19,8 L20,8 L20,10 L21,10 L21,12 L22,12 L22,14 L23,14 L23,68 L22,68 L22,18 L21,18 L21,16 L20,16 L20,11 L18,11 L18,8 L17,8 L17,7 L16,7 L16,6 L15,6 L15,5 L14,5 L14,4 L13,4 L13,3 L8,3 L8,2 L4,2 L4,3 L2,3 L2,2 L1,2 L1,3 L-3,3 L-3,4 L-4,4 L-4,5 L-5,5 L-5,6 L-6,6 L-6,7 L-7,7 L-7,8 L-8,8 L-8,9 L-9,9 L-9,10 L-10,10 L-10,13 L-11,13 L-11,15 L-12,15 L-12,56 L-13,56 L-13,121 L-14,121 L-14,14 L-13,14 L-13,12 L-12,12 L-12,10 L-11,10 L-11,8 L-10,8 L-10,7 L-9,7 L-9,6 L-8,6 L-8,5 L-7,5 L-7,4 L-6,4 L-6,3 L-4,3 L-4,2 L-2,2 L-2,1 L0,1 Z " fill="#85CADD" transform="translate(321,380)"/>
<path d="M0,0 L1,0 L1,81 L2,81 L2,82 L3,82 L3,86 L4,86 L4,87 L5,87 L5,88 L6,88 L6,89 L7,89 L7,90 L9,90 L9,91 L10,91 L10,92 L13,92 L13,93 L16,93 L16,94 L21,94 L21,93 L22,93 L22,92 L26,92 L26,91 L27,91 L27,90 L29,90 L29,89 L30,89 L30,88 L31,88 L31,87 L32,87 L32,86 L33,86 L33,82 L34,82 L34,80 L35,80 L35,24 L36,24 L36,83 L35,83 L35,85 L34,85 L34,87 L33,87 L33,89 L32,89 L32,90 L31,90 L31,91 L30,91 L30,92 L28,92 L28,93 L26,93 L26,94 L24,94 L24,95 L12,95 L12,94 L10,94 L10,93 L8,93 L8,92 L7,92 L7,91 L5,91 L5,90 L4,90 L4,88 L3,88 L3,87 L2,87 L2,85 L1,85 L1,82 L0,82 Z " fill="#6ABCD6" transform="translate(200,421)"/>
<path d="M0,0 L12,0 L12,1 L15,1 L15,2 L17,2 L17,3 L18,3 L18,4 L16,4 L16,3 L14,3 L14,2 L9,2 L9,1 L4,1 L4,2 L-1,2 L-1,3 L-2,3 L-2,4 L-3,4 L-3,5 L-4,5 L-4,6 L-5,6 L-5,7 L-6,7 L-6,8 L-7,8 L-7,9 L-8,9 L-8,10 L-9,10 L-9,13 L-10,13 L-10,18 L-9,18 L-9,20 L-10,20 L-10,33 L-9,33 L-9,34 L-10,34 L-10,35 L-9,35 L-9,36 L-10,36 L-10,39 L-11,39 L-11,153 L-12,153 L-12,14 L-11,14 L-11,11 L-10,11 L-10,9 L-9,9 L-9,7 L-8,7 L-8,6 L-7,6 L-7,5 L-6,5 L-6,4 L-5,4 L-5,3 L-4,3 L-4,2 L-2,2 L-2,1 L0,1 Z " fill="#B6E6F2" transform="translate(265,347)"/>
<path d="M0,0 L10,0 L10,1 L13,1 L13,2 L15,2 L15,3 L16,3 L16,4 L17,4 L17,5 L18,5 L18,6 L19,6 L19,7 L20,7 L20,8 L21,8 L21,10 L22,10 L22,12 L23,12 L23,16 L22,16 L22,22 L21,22 L21,12 L20,12 L20,10 L19,10 L19,9 L18,9 L18,8 L17,8 L17,6 L16,6 L16,5 L15,5 L15,4 L12,4 L12,3 L11,3 L11,2 L0,2 L0,3 L-1,3 L-1,4 L-4,4 L-4,5 L-5,5 L-5,6 L-6,6 L-6,7 L-7,7 L-7,8 L-8,8 L-8,9 L-9,9 L-9,10 L-10,10 L-10,12 L-11,12 L-11,16 L-12,16 L-12,78 L-11,78 L-11,82 L-9,82 L-9,85 L-8,85 L-8,86 L-7,86 L-7,87 L-6,87 L-6,88 L-5,88 L-5,89 L-3,89 L-3,90 L-1,90 L-1,91 L1,91 L1,92 L9,92 L9,91 L12,91 L12,90 L13,90 L13,88 L17,88 L17,89 L16,89 L16,90 L15,90 L15,91 L13,91 L13,92 L10,92 L10,93 L-1,93 L-1,92 L-3,92 L-3,91 L-5,91 L-5,90 L-6,90 L-6,89 L-7,89 L-7,88 L-8,88 L-8,87 L-9,87 L-9,86 L-10,86 L-10,84 L-11,84 L-11,83 L-12,83 L-12,80 L-13,80 L-13,12 L-12,12 L-12,10 L-11,10 L-11,8 L-10,8 L-10,7 L-9,7 L-9,6 L-8,6 L-8,5 L-7,5 L-7,4 L-6,4 L-6,3 L-5,3 L-5,2 L-3,2 L-3,1 L0,1 Z " fill="#319BB7" transform="translate(374,423)"/>
<path d="M0,0 L2,0 L2,1 L1,1 L1,87 L2,87 L2,89 L0,89 L0,81 L-1,81 L-1,35 L-2,35 L-2,13 L-1,13 L-1,3 L0,3 Z " fill="#D9F4F9" transform="translate(199,416)"/>
<path d="M0,0 L1,0 L1,55 L2,55 L2,60 L1,60 L1,62 L2,62 L2,63 L1,63 L1,64 L2,64 L2,67 L3,67 L3,70 L4,70 L4,72 L5,72 L5,73 L7,73 L7,75 L9,75 L9,77 L15,77 L15,78 L18,78 L18,79 L19,79 L19,78 L21,78 L21,77 L24,77 L24,76 L25,76 L25,75 L27,75 L27,74 L28,74 L28,73 L30,73 L30,76 L29,76 L29,77 L27,77 L27,78 L25,78 L25,79 L22,79 L22,80 L12,80 L12,79 L10,79 L10,78 L8,78 L8,77 L6,77 L6,76 L5,76 L5,75 L4,75 L4,74 L3,74 L3,72 L2,72 L2,70 L1,70 L1,68 L0,68 Z " fill="#2BA3C7" transform="translate(308,436)"/>
<path d="M0,0 L1,0 L1,56 L2,56 L2,57 L1,57 L1,60 L2,60 L2,61 L3,61 L3,65 L4,65 L4,67 L5,67 L5,68 L7,68 L7,70 L9,70 L9,71 L10,71 L10,72 L15,72 L15,73 L16,73 L16,74 L20,74 L20,72 L25,72 L25,71 L27,71 L27,70 L28,70 L28,69 L29,69 L29,68 L30,68 L30,67 L31,67 L31,65 L33,65 L33,68 L32,68 L32,69 L31,69 L31,70 L30,70 L30,71 L29,71 L29,72 L28,72 L28,73 L26,73 L26,74 L24,74 L24,75 L12,75 L12,74 L10,74 L10,73 L8,73 L8,72 L7,72 L7,71 L5,71 L5,70 L4,70 L4,68 L3,68 L3,67 L2,67 L2,65 L1,65 L1,62 L0,62 Z " fill="#2EA2C7" transform="translate(254,441)"/>
<path d="M0,0 L2,0 L2,2 L3,2 L3,3 L4,3 L4,6 L5,6 L5,74 L4,74 L4,75 L2,75 L2,73 L3,73 L3,5 L2,5 L2,3 L1,3 L1,1 L0,1 Z " fill="#BCEEF7" transform="translate(394,430)"/>
<path d="M0,0 L1,0 L1,92 L0,92 L0,94 L-2,94 L-2,91 L-1,91 L-1,86 L0,86 L0,81 L-1,81 L-1,72 L0,72 L0,68 L-1,68 L-1,63 L0,63 L0,56 L-1,56 L-1,55 L0,55 L0,51 L-1,51 L-1,48 L0,48 Z " fill="#55B1CC" transform="translate(289,411)"/>
<path d="M0,0 L10,0 L10,1 L13,1 L13,2 L15,2 L15,3 L16,3 L16,4 L17,4 L17,5 L18,5 L18,6 L19,6 L19,7 L20,7 L20,8 L21,8 L21,10 L22,10 L22,12 L23,12 L23,16 L22,16 L22,22 L21,22 L21,12 L20,12 L20,10 L19,10 L19,9 L18,9 L18,8 L17,8 L17,6 L16,6 L16,5 L15,5 L15,4 L12,4 L12,3 L11,3 L11,2 L0,2 L0,3 L-1,3 L-1,4 L-4,4 L-4,5 L-5,5 L-5,6 L-6,6 L-6,7 L-7,7 L-7,8 L-8,8 L-8,9 L-9,9 L-9,10 L-10,10 L-10,12 L-11,12 L-11,16 L-13,16 L-13,12 L-12,12 L-12,10 L-11,10 L-11,8 L-10,8 L-10,7 L-9,7 L-9,6 L-8,6 L-8,5 L-7,5 L-7,4 L-6,4 L-6,3 L-5,3 L-5,2 L-3,2 L-3,1 L0,1 Z " fill="#5CB5D0" transform="translate(374,423)"/>
<path d="M0,0 L12,0 L12,1 L15,1 L15,2 L17,2 L17,3 L18,3 L18,4 L16,4 L16,3 L14,3 L14,2 L9,2 L9,1 L4,1 L4,2 L-1,2 L-1,3 L-2,3 L-2,4 L-3,4 L-3,5 L-4,5 L-4,6 L-5,6 L-5,7 L-6,7 L-6,8 L-7,8 L-7,9 L-8,9 L-8,10 L-9,10 L-9,13 L-10,13 L-10,18 L-9,18 L-9,20 L-10,20 L-10,33 L-9,33 L-9,34 L-10,34 L-10,35 L-9,35 L-9,36 L-10,36 L-10,39 L-11,39 L-11,11 L-10,11 L-10,9 L-9,9 L-9,7 L-8,7 L-8,6 L-7,6 L-7,5 L-6,5 L-6,4 L-5,4 L-5,3 L-4,3 L-4,2 L-2,2 L-2,1 L0,1 Z " fill="#8ECBDE" transform="translate(265,347)"/>
<path d="M0,0 L10,0 L10,1 L12,1 L12,2 L14,2 L14,3 L16,3 L16,4 L17,4 L17,5 L15,5 L15,4 L13,4 L13,3 L11,3 L11,2 L0,2 L0,3 L-3,3 L-3,4 L-4,4 L-4,5 L-5,5 L-5,6 L-6,6 L-6,7 L-7,7 L-7,8 L-8,8 L-8,9 L-9,9 L-9,10 L-10,10 L-10,13 L-11,13 L-11,15 L-12,15 L-12,16 L-13,16 L-13,12 L-12,12 L-12,10 L-11,10 L-11,8 L-10,8 L-10,7 L-9,7 L-9,6 L-8,6 L-8,5 L-7,5 L-7,4 L-6,4 L-6,3 L-5,3 L-5,2 L-3,2 L-3,1 L0,1 Z " fill="#95D0E3" transform="translate(213,405)"/>
<path d="M0,0 L1,0 L1,4 L3,4 L3,7 L4,7 L4,8 L5,8 L5,9 L6,9 L6,10 L7,10 L7,11 L9,11 L9,12 L11,12 L11,13 L13,13 L13,14 L21,14 L21,13 L24,13 L24,12 L25,12 L25,10 L29,10 L29,11 L28,11 L28,12 L27,12 L27,13 L25,13 L25,14 L22,14 L22,15 L11,15 L11,14 L9,14 L9,13 L7,13 L7,12 L6,12 L6,11 L5,11 L5,10 L4,10 L4,9 L3,9 L3,8 L2,8 L2,6 L1,6 L1,5 L0,5 L0,2 L-1,2 L-1,1 L0,1 Z " fill="#33A2C4" transform="translate(362,501)"/>
<path d="M0,0 L1,0 L1,2 L2,2 L2,29 L1,29 L1,31 L-1,31 L-1,28 L0,28 L0,23 L1,23 L1,18 L0,18 L0,9 L1,9 L1,5 L0,5 Z " fill="#2EA7CA" transform="translate(288,474)"/>
<path d="M0,0 L8,0 L8,1 L12,1 L12,2 L14,2 L14,3 L15,3 L15,4 L17,4 L17,5 L18,5 L18,7 L19,7 L19,8 L20,8 L20,10 L21,10 L21,12 L22,12 L22,18 L21,18 L21,16 L20,16 L20,11 L18,11 L18,8 L17,8 L17,7 L16,7 L16,6 L15,6 L15,5 L14,5 L14,4 L13,4 L13,3 L8,3 L8,2 L6,2 L6,1 L0,1 Z " fill="#81C6DA" transform="translate(321,380)"/>
<path d="M0,0 L1,0 L1,2 L0,2 L0,3 L-1,3 L-1,4 L-2,4 L-2,5 L-3,5 L-3,6 L-4,6 L-4,7 L-5,7 L-5,8 L-6,8 L-6,9 L-7,9 L-7,10 L-8,10 L-8,11 L-9,11 L-9,13 L-10,13 L-10,15 L-11,15 L-11,17 L-12,17 L-12,20 L-14,20 L-14,18 L-13,18 L-13,16 L-12,16 L-12,14 L-11,14 L-11,12 L-10,12 L-10,10 L-9,10 L-9,9 L-8,9 L-8,7 L-7,7 L-7,6 L-6,6 L-6,5 L-5,5 L-5,4 L-4,4 L-4,3 L-3,3 L-3,2 L-2,2 L-2,1 L0,1 Z " fill="#203143" transform="translate(940,420)"/>
<path d="M0,0 L1,0 L1,11 L0,11 L0,12 L-2,12 L-2,10 L-1,10 L-1,8 L0,8 Z " fill="#DCF9FC" transform="translate(398,493)"/>
</svg>
